<svg preserveAspectRatio="none" width="100%" height="100%" overflow="visible" style="display: block;" viewBox="0 0 43.995 43.995" fill="none" xmlns="http://www.w3.org/2000/svg">
<g id="Group 1083956">
<path id="vertical" d="M21.9975 0C26.045 0 29.33 3.28496 29.33 7.3325V36.6625C29.33 40.71 26.045 43.995 21.9975 43.995C17.95 43.995 14.665 40.71 14.665 36.6625V7.3325C14.665 3.28496 17.95 0 21.9975 0Z" fill="var(--fill-0, #FF7A85)"/>
<path id="horizontal" d="M43.995 22.672C43.995 26.7196 40.71 30.0045 36.6625 30.0045H7.3325C3.28496 30.0045 0 26.7196 0 22.672C0 18.6245 3.28496 15.3395 7.3325 15.3395H36.6625C40.71 15.3395 43.995 18.6245 43.995 22.672Z" fill="var(--fill-0, #E00842)"/>
<path id="middle" d="M29.33 15.3395H14.665V30.0045H29.33V15.3395Z" fill="var(--fill-0, #A4095A)"/>
</g>
</svg>
